<?xml version="1.0" encoding="utf-8"?>
<!-- Generator: Adobe Illustrator 23.1.1, SVG Export Plug-In . SVG Version: 6.00 Build 0)  -->
<svg version="1.1" id="Layer_1" xmlns="http://www.w3.org/2000/svg" xmlns:xlink="http://www.w3.org/1999/xlink" x="0px" y="0px"
	 viewBox="0 0 989.3 623.8" style="enable-background:new 0 0 989.3 623.8;" xml:space="preserve">
<style type="text/css">
	.st0{fill:#E6E6E6;}
	.st1{fill:#FFFFFF;}
	.st2{fill:#41B983;}
	.st3{fill:#FFB8B8;}
	.st4{fill:#3F3D56;}
	.st5{fill:#2F2E41;}
	.st6{fill:#F9A826;}
	.st7{fill:#FFB6B6;}
	.st8{fill:#FD6584;}
	.st9{fill:#E4E4E4;}
</style>
<path class="st0" d="M587,19.1C658.3-19,748.6,1,796.6,68.6l-1.6,1.2C747.6,3,658.3-16.7,588,20.9c-6,3.2-11.7,6.8-17.3,10.7
	c-72.3,51.3-89.4,151.9-38.1,224.2l-1.6,1.2C479,183.7,496.3,81.9,569.5,30C575.1,26,581,22.4,587,19.1z"/>
<path class="st0" d="M964.3,182l-234.2-18.2c-7.6-0.6-13.2-7.2-12.6-14.8l10.2-113.8c0.6-7.6,7.2-13.2,14.8-12.6l234.2,18.2
	c7.6,0.6,13.2,7.2,12.6,14.8l-10.2,113.8C978.5,176.9,971.9,182.6,964.3,182z"/>
<path class="st1" d="M909,156.3c-1.8,0-3.6-0.1-5.4-0.2l-151.4-11.8c-12.7-1-22.2-12.1-21.3-24.8c0,0,0,0,0,0l3.5-44.4
	c1-12.7,12.1-22.2,24.8-21.3l195.8,15.2c12.7,1,22.2,12.1,21.3,24.8C973.6,129.1,944.3,156.2,909,156.3L909,156.3z"/>
<path class="st0" d="M950.4,104.4L758.5,89.4c-1.7-0.1-2.9-1.6-2.8-3.3c0.1-1.7,1.6-2.9,3.3-2.8l191.9,14.9c1.7,0.1,2.9,1.6,2.8,3.3
	C953.5,103.2,952.1,104.5,950.4,104.4L950.4,104.4z"/>
<path class="st0" d="M870.7,110.3l-113.2-8.8c-1.7-0.1-2.9-1.6-2.8-3.3c0.1-1.7,1.6-2.9,3.3-2.8l113.2,8.8c1.7,0.1,2.9,1.6,2.8,3.3
	C873.8,109.1,872.4,110.4,870.7,110.3C870.7,110.3,870.7,110.3,870.7,110.3L870.7,110.3z"/>
<path class="st0" d="M895.6,124.3l-139-10.8c-1.7-0.1-2.9-1.6-2.8-3.3c0.1-1.7,1.6-2.9,3.3-2.8c0,0,0,0,0,0l139,10.8
	c1.7,0.1,2.9,1.6,2.8,3.3S897.3,124.4,895.6,124.3L895.6,124.3z"/>
<path class="st0" d="M948.7,336.5l-234.2-18.2c-7.6-0.6-13.2-7.2-12.6-14.8l10.2-113.8c0.6-7.6,7.2-13.2,14.8-12.6l234.2,18.2
	c7.6,0.6,13.2,7.2,12.6,14.8l-10.2,113.8C962.8,331.4,956.2,337.1,948.7,336.5z"/>
<path class="st1" d="M893.3,310.8c-1.8,0-3.5-0.1-5.3-0.2l-151.4-11.8c-12.7-1-22.2-12.1-21.3-24.8c0,0,0,0,0,0l3.5-44.4
	c1-12.7,12.1-22.2,24.8-21.3c0,0,0,0,0,0l195.8,15.2c12.7,1,22.2,12.1,21.3,24.8c0,0,0,0,0,0C957.9,283.6,928.5,310.7,893.3,310.8z"
	/>
<path class="st0" d="M934.7,258.9l-191.9-14.9c-1.7-0.1-2.9-1.6-2.8-3.3c0.1-1.7,1.6-2.9,3.3-2.8l0,0l191.9,14.9
	c1.7,0.1,2.9,1.6,2.8,3.3C937.8,257.7,936.4,259,934.7,258.9z"/>
<path class="st0" d="M855,264.8L741.9,256c-1.7-0.1-2.9-1.6-2.8-3.3s1.6-2.9,3.3-2.8l113.2,8.8c1.7,0.1,2.9,1.6,2.8,3.3
	S856.7,264.9,855,264.8z"/>
<path class="st0" d="M879.9,278.8l-139-10.8c-1.7-0.1-2.9-1.6-2.8-3.3s1.6-2.9,3.3-2.8l0,0l139,10.8c1.7,0.1,2.9,1.6,2.8,3.3
	S881.6,278.9,879.9,278.8z"/>
<path class="st0" d="M352.8,277.1c-12.5-28.3,0.3-61.4,28.7-74s61.4,0.3,74,28.7l0,0l-1.8,0.8c-12.1-27.3-44-39.7-71.3-27.7
	c-27.3,12.1-39.7,44-27.7,71.3c0,0,0,0,0,0L352.8,277.1z"/>
<path class="st2" d="M934.1,589.8c22.9-10.9,40-32.7,37.3-56.7c-20.5,16.6-48.5,25.9-77.4,25.7c-11.2-0.1-23.8-1.2-32,5.1
	c-5.1,3.9-7.4,10.2-7.7,16.4c-0.3,6.2,1.2,12.5,2.7,18.7l-0.5,1.5C883.5,602.2,911.2,600.7,934.1,589.8z"/>
<path class="st1" d="M970.9,533.1c-8.9,17.3-24.2,31.7-43.3,40.1c-4.2,2-8.6,3.3-13.2,3.9c-4.7,0.5-9.4-0.1-13.7-1.8
	c-4.1-1.5-8.2-3.4-12.6-4c-4.4-0.6-8.8,0.6-12.2,3.3c-4.1,3.2-6.5,7.5-8.7,11.9c-2.4,4.8-4.9,9.9-9.7,13.2c-0.6,0.4,0.2,1.2,0.8,0.8
	c8.3-5.7,9.5-16.1,16.1-23.1c3.1-3.6,7.7-5.5,12.5-5.2c4.5,0.3,8.7,2.3,12.9,3.9c4.3,1.7,8.8,2.4,13.4,2.2c4.6-0.4,9.1-1.6,13.4-3.4
	c9.2-3.8,17.8-9.2,25.3-15.7c8.3-7.2,15.2-15.9,20.2-25.7C972.3,532.9,971.2,532.5,970.9,533.1L970.9,533.1z"/>
<path class="st1" d="M934,570.8c4.9,5.8,13,7.9,20.2,5.1c0.7-0.3,0.1-1.3-0.5-1c-6.6,2.6-14.2,0.7-18.7-4.8
	C934.4,569.6,933.5,570.2,934,570.8L934,570.8z"/>
<path class="st1" d="M902.7,576.3c0.9-6.8,4.7-12.9,10.4-16.8c0.6-0.4-0.2-1.2-0.8-0.8c-5.9,4-9.8,10.4-10.7,17.5
	C901.4,576.8,902.6,577,902.7,576.3L902.7,576.3z"/>
<path class="st1" d="M958.8,551.2c-2.2-1.7-3.4-4.5-3.1-7.3c0.1-0.7-1.1-0.8-1.2-0.1c-0.3,3.1,1,6.1,3.5,8.1
	c0.2,0.2,0.6,0.3,0.8,0.1C958.9,551.8,959,551.5,958.8,551.2C958.8,551.3,958.8,551.2,958.8,551.2L958.8,551.2z"/>
<path class="st2" d="M895.9,482.4c-0.1,0.4-0.1,0.8-0.2,1.2c-1,5.6-2.5,11-4.5,16.3c-0.1,0.4-0.3,0.8-0.5,1.2
	c-5,12.8-12.7,24.4-22.5,34c-4,3.9-8.3,7.5-12.9,10.8c-6.4,4.5-13.7,8.9-17.8,15c-0.4,0.6-0.8,1.3-1.1,2l18.2,36.8
	c0.1,0.1,0.2,0.1,0.3,0.2l0.7,1.5c0.3-0.2,0.5-0.3,0.8-0.5c0.1-0.1,0.3-0.2,0.4-0.3c0.1-0.1,0.2-0.1,0.3-0.2c0,0,0.1,0,0.1-0.1
	c0.1-0.1,0.2-0.1,0.3-0.2c1.4-0.9,2.9-1.8,4.3-2.8c0,0,0,0,0,0c10.9-7.1,21.2-15.2,29.6-24.5c0.3-0.3,0.5-0.6,0.8-0.9
	c3.7-4.2,7.1-8.7,10-13.5c1.6-2.6,3-5.3,4.3-8.1c3.2-7.2,5.2-14.8,5.7-22.7c1-15.7-3.6-32-15.2-44.5
	C896.5,483.1,896.2,482.7,895.9,482.4z"/>
<path class="st1" d="M895.4,482.7c5.1,19.4,3.3,39.9-5.3,57.4c-1.8,3.9-4.2,7.4-7.3,10.4c-3.2,3-7.2,5-11.5,5.9
	c-4.1,1-8.5,1.5-12.2,3.4c-3.7,1.8-6.2,5.3-6.9,9.4c-0.9,4.9,0.2,9.9,1.6,14.8c1.5,5.4,3.1,11,1.7,16.4c-0.2,0.7,1,0.9,1.2,0.3
	c2.3-9.4-3.8-18.8-3.6-28.3c0.1-4.4,1.7-8.7,5.8-11.2c3.6-2.1,8.1-2.7,12.3-3.7c4.2-0.8,8.2-2.7,11.5-5.4c3.2-2.8,5.8-6.3,7.7-10.1
	c4.4-8.4,7.2-17.6,8.3-27c1.3-10.9,0.6-22-2.2-32.7C896.4,481.7,895.2,482,895.4,482.7L895.4,482.7z"/>
<path class="st1" d="M893.3,534.5c7.5,2.3,15.4-0.5,18.6-6.5c0.3-0.6-0.8-1.1-1.1-0.5c-2.9,5.7-10.3,8.2-17.3,6
	C892.8,533.3,892.6,534.3,893.3,534.5L893.3,534.5z"/>
<path class="st1" d="M873.6,556.1c-3.9-5.8-5.2-13-3.6-19.9c0.2-0.7-1-0.9-1.2-0.3c-1.6,7.1-0.2,14.6,3.8,20.7
	C873,557.2,874,556.7,873.6,556.1z"/>
<path class="st1" d="M898.6,504.6c-3-0.3-5.6-2-7.3-4.5c-0.4-0.6-1.4-0.1-1,0.5c1.8,2.8,4.8,4.6,8,5c0.3,0,0.6-0.1,0.7-0.4
	C899.1,504.9,898.9,504.7,898.6,504.6z"/>
<path class="st3" d="M934.5,328.5l-13.9-74.1l-27.3-36L873,231.6c2.9,15.5,24.5,44.5,24.5,44.5l19.2,57.3c-0.1,0.3-0.1,0.6-0.2,0.9
	c-1,5.8,2.9,11.3,8.8,12.3c5.8,1,11.3-2.9,12.3-8.8C938.2,334.4,937,330.9,934.5,328.5L934.5,328.5z"/>
<path class="st4" d="M873.6,239.5l22.9-18.6l0-0.1c4.3-9.7-5.2-26.4-14-38.6c-6-8.4-17.4-10.7-26.2-5.3l0,0
	c-6.3,4-9.9,11.2-9.1,18.6l1.9,18.6L873.6,239.5z"/>
<polygon class="st3" points="792.5,608.2 777.3,608.2 770,549.4 792.5,549.4 "/>
<path class="st5" d="M796.4,603.2l-4.3,0l-16.8-6.8l-9,6.8h0c-10.6,0-19.1,8.6-19.1,19.1v0.6l49.2,0L796.4,603.2z"/>
<polygon class="st3" points="860.2,608.2 845,608.2 837.7,549.4 860.2,549.4 "/>
<path class="st5" d="M864.1,603.2l-4.3,0l-16.8-6.8l-9,6.8h0c-10.6,0-19.1,8.6-19.1,19.1v0.6l49.2,0L864.1,603.2z"/>
<path class="st5" d="M883.5,354.8c0,0,1.8,21.4-2.7,41.9s-4.5,78.2-4.5,78.2l-9.8,112.4l-29.4-2.7l-8-187.9l-28.5,63.2l2.7,8.9
	l-3.6,2.2c0,0,2.7,17.4,0.9,17.4s-6.2,2.7-6.2,2.7l3.6,91.7l-30.3-0.9L757,452.8l11.6-73.9l0.9-14.2l4,0.2l2-6l3.7-10.2L883.5,354.8
	z"/>
<path class="st4" d="M885,359.3l0.2-0.2c8.5-11.9-4.3-40.4-6.2-44.5l8.1-2.6l-1.8-15.5l-0.9-6.9l6.2-6.2l0-0.2l3.6-31.2l5.2-20.7
	c4-15.9-1-32.8-12.9-44l-12-11.3l-14.5-21.5h-23.5l-8,15.2c-16.1,3.7-27.2,18.4-26.5,34.9l1.8,39.9l-7.1,49.6l0,9l-8,8.9l1.8,8.8
	l-6.1,2.6l-2.7,12.6c-1.1,1.5-8.5,11.3-8.5,14c0,0.4,0.3,0.8,0.9,1.2c5,3.4,32.8,10.3,45.1,5.4c13.1-5.2,65.1,2.6,65.7,2.7
	L885,359.3z"/>
<circle class="st3" cx="845.2" cy="116.4" r="31.1"/>
<path class="st5" d="M842.2,148c4.8,0,9.6-0.5,14.3-1.4c4.7-1.1,15-9.1,17.8-13.8l0,0c2.1-3.5,3.4-8.9,4-12.9
	c1.9-10.5-0.8-21.4-7.4-29.8c-1.3-1.7-3-3.1-4.9-4c-0.2-0.1-0.4-0.1-0.5-0.2c-2.9-0.7-5.4-2.2-7.4-4.3c-0.4-0.4-0.8-0.8-1.2-1.2
	c-2.2-1.8-4.9-3-7.7-3.6c-4.5-1.1-11,0.3-19.3,4.1c-4.1,1.9-8.7,1.4-12.3,0.7c-0.4-0.1-0.8,0.1-1.1,0.4c-1.5,1.4-3.4,2.3-5.5,2.3
	c-1.3,0.1-2.5,1.9-4.1,4.2c-0.3,0.5-0.8,1.1-1.1,1.5l-0.1-0.7l-0.7,0.8c-3.6,4.1-3.1,10.4,1,13.9c1.1,1,2.4,1.7,3.8,2
	c1.3,0.3,2.6,0.5,3.9,0.5c0.8,0.1,1.6,0.1,2.4,0.2c5.2,0.9,9.5,4.5,11.3,9.4c0.8,2,3,3,5,2.2c0.3-0.1,0.6-0.3,0.9-0.5
	c1.6-1.3,3.8-1.8,5.8-1.2c0.9,0.5,1.6,1.2,1.9,2.1c0.5,1,1.2,1.8,2.2,2.4c3.2,1.6,3.6,8.9,2.7,15c-1,5.9-3,10.2-5,10.4
	c-1.6,0.2-1.7,0.3-1.8,0.6l-0.1,0.2l0.2,0.2C840.4,148,841.3,148.1,842.2,148z"/>
<circle class="st6" cx="500.7" cy="246.4" r="61.8"/>
<path class="st3" d="M835,237.2l-20.4-13c-13,9-30.5,40.6-30.5,40.6l-44.4,41c-5.8,1-9.7,6.5-8.7,12.3c1,5.8,6.5,9.7,12.3,8.7
	c3.8-0.6,6.9-3.3,8.2-6.9l61.9-43.1L835,237.2z"/>
<path class="st4" d="M833.1,242.4l13.6-32.6l-4.9-18c-2-7.2-7.9-12.7-15.2-14.1l0,0c-10.1-1.9-20,4.4-22.5,14.4
	c-3.7,14.6-6.6,33.6,0.9,41.1l0.1,0.1L833.1,242.4z"/>
<path class="st2" d="M42.6,605C16,591.3-3.3,565,0.7,536.8c23.6,20.4,56.2,32.4,90.2,33.2c13.3,0.3,28.1-0.6,37.5,7.2
	c5.8,4.8,8.3,12.2,8.4,19.6c0.1,7.3-1.9,14.7-3.9,21.9l0.5,1.7C101.7,621.5,69.1,618.6,42.6,605z"/>
<path class="st1" d="M1.4,536.8c9.8,20.7,27.3,38.2,49.5,48.9c4.9,2.5,10,4.2,15.4,5.1c5.5,0.7,11,0.2,16.2-1.6
	c4.9-1.6,9.8-3.7,15-4.3c5.1-0.6,10.3,1,14.3,4.3c4.7,3.9,7.4,9.1,9.8,14.3c2.7,5.8,5.4,11.9,10.9,15.9c0.7,0.5-0.3,1.4-1,1
	c-9.6-7.1-10.6-19.4-18.1-27.8c-3.5-3.9-8.5-6.9-14.5-6.6c-5.3,0.2-10.3,2.4-15.3,4.1c-5.1,1.8-10.5,2.5-15.9,2.1
	c-5.4-0.7-10.7-2.2-15.6-4.5c-10.7-4.9-20.6-11.4-29.2-19.5c-9.5-8.8-17.3-19.3-22.9-31C-0.3,536.5,1.1,536.1,1.4,536.8L1.4,536.8z"
	/>
<path class="st1" d="M43.5,582.5c-5.8,6.6-16.1,8.9-23.9,5.3c-0.8-0.4-0.1-1.5,0.7-1.1c7.7,3.3,16.7,1.3,22.3-5
	C43,581.1,44,581.9,43.5,582.5z"/>
<path class="st1" d="M80.2,590.2c-0.8-8.1-5-15.4-11.6-20.2c-0.7-0.5,0.3-1.4,1-1c6.8,5,11.2,12.6,12,21
	C81.6,590.9,80.2,591,80.2,590.2z"/>
<path class="st1" d="M15,558.6c2.7-1.9,4.2-5.1,4-8.5c-0.1-0.8,1.3-0.9,1.4-0.1c0.2,3.7-1.4,7.2-4.4,9.4c-0.3,0.3-0.7,0.3-1,0.1
	C14.8,559.3,14.7,558.9,15,558.6C15,558.6,15,558.6,15,558.6L15,558.6z"/>
<path class="st2" d="M91.6,479.9c0.1,0.5,0.1,1,0.2,1.5c0.9,6.6,2.5,13.1,4.7,19.4c0.2,0.5,0.3,1,0.5,1.5
	c5.5,15.2,14.1,29.2,25.3,40.9c4.6,4.8,9.5,9.2,14.8,13.2c7.3,5.6,15.9,11,20.4,18.3c0.5,0.8,0.9,1.5,1.3,2.4l-22.8,42.7
	c-0.1,0.1-0.2,0.2-0.3,0.2l-0.8,1.7c-0.3-0.2-0.6-0.4-0.9-0.6c-0.2-0.1-0.3-0.2-0.5-0.3c-0.1-0.1-0.2-0.2-0.3-0.2
	c0,0-0.1-0.1-0.1-0.1c-0.1-0.1-0.2-0.1-0.3-0.2c-1.7-1.1-3.3-2.3-5-3.4c0,0,0,0,0,0c-12.6-8.8-24.4-18.7-34-30
	c-0.3-0.3-0.6-0.7-0.9-1c-4.3-5.1-8-10.5-11.3-16.3c-1.8-3.1-3.3-6.4-4.7-9.7c-3.6-8.6-5.5-17.7-5.8-26.9
	c-0.6-18.5,5.5-37.5,19.6-51.9C90.9,480.6,91.3,480.2,91.6,479.9z"/>
<path class="st1" d="M92.2,480.2c-6.7,22.7-5.4,46.9,4.1,67.8c2,4.6,4.7,8.9,8.2,12.5c3.7,3.6,8.3,6.2,13.3,7.4
	c4.8,1.3,9.9,2.1,14.2,4.5c4.3,2.3,7.2,6.5,7.8,11.3c0.9,5.8-0.7,11.6-2.4,17.3c-1.9,6.3-4,12.9-2.6,19.3c0.2,0.8-1.2,1-1.4,0.3
	c-2.4-11.1,5.2-22,5.3-33.2c0-5.2-1.7-10.3-6.4-13.4c-4.1-2.7-9.4-3.5-14.3-4.8c-4.9-1.1-9.5-3.4-13.4-6.7
	c-3.6-3.5-6.6-7.6-8.7-12.2c-4.8-10.1-7.8-21-8.7-32.1c-1.2-12.9,0.1-26,3.9-38.4C91.1,479,92.4,479.4,92.2,480.2L92.2,480.2z"/>
<path class="st1" d="M92.7,541.4c-8.9,2.5-18.2-1.1-21.6-8.4c-0.3-0.7,0.9-1.3,1.3-0.6c3.3,6.8,11.8,10.1,20.1,7.8
	C93.4,539.9,93.6,541.1,92.7,541.4L92.7,541.4z"/>
<path class="st1" d="M115.2,567.5c4.8-6.7,6.6-15.1,5-23.3c-0.2-0.8,1.2-1.1,1.4-0.3c1.6,8.4-0.3,17.2-5.3,24.2
	C115.8,568.9,114.7,568.2,115.2,567.5L115.2,567.5z"/>
<path class="st1" d="M87.6,505.9c3.5-0.3,6.7-2.1,8.8-5c0.5-0.7,1.6,0,1.1,0.7c-2.3,3.2-5.8,5.2-9.7,5.6c-0.4,0-0.7-0.1-0.8-0.5
	C87,506.3,87.2,505.9,87.6,505.9z"/>
<polygon class="st7" points="172,265.9 174,284.5 172.8,308.9 226.8,302.5 231.8,265.9 225.4,266 "/>
<polygon class="st7" points="144.1,603 155.8,603 161.5,557.5 144.1,557.5 "/>
<path class="st5" d="M140.2,594.9l18.8-1.1v8.1l17.9,12.4c2.3,1.6,2.9,4.7,1.3,7c-0.9,1.4-2.5,2.2-4.1,2.2h-22.4l-3.9-8l-1.5,8h-8.5
	L140.2,594.9z"/>
<polygon class="st7" points="210.3,603 222.1,603 227.7,557.5 210.3,557.5 "/>
<path class="st5" d="M206.4,594.9l18.8-1.1v8.1l17.9,12.4c2.3,1.6,2.9,4.7,1.3,7c-0.9,1.4-2.5,2.2-4.1,2.2h-22.4l-3.9-8l-1.5,8h-8.5
	L206.4,594.9z"/>
<path class="st5" d="M139,563.8h0.1l2.3-73.9c-3-5.7-2.9-12.6,0.3-18.3l0.3-0.6l-0.8-3.9c-1.1-5-0.6-10.2,1.4-15l2.1-69
	c-7.6-49,28.5-80.9,28.5-80.9H227l11.6,39.8c7.7,74.6,6.3,147.3-5.9,217.7l0.3,0.2c1.2,0.4,1.7,2.1,1.1,3.7s-2,2.6-3.2,2.2l-28.5-1
	c-1.2-0.4-1.7-2.1-1.1-3.7c0.6-1.6,2-2.6,3.2-2.2l1.9,1l-4.1-71.3l0.5-13l-0.9-14.8l-4.4-66.5L181,476l-16.9,88.6
	c1.3,1.2,1.4,3.1,0.2,4.4c-0.6,0.7-1.4,1-2.3,1H139c-1.7,0-3.1-1.4-3.1-3.1C135.9,565.2,137.2,563.8,139,563.8L139,563.8L139,563.8z
	"/>
<circle class="st7" cx="181.4" cy="142" r="28.9"/>
<path class="st5" d="M54.6,275.7c4.1-9.4,9.7-18.2,16.5-25.8c-5.8,9.3-9.2,19.9-9.7,30.9c2.1,1.3,4.3,2.5,6.6,3.5
	c6.9,2.9,14.2,4.5,21.6,4.9c4-13.4,10.9-25.7,20.3-36c-6.7,10.7-10.1,23.2-9.7,35.9c8.3-0.7,16.5-2.5,24.3-5.2
	c11.8-4.1,23.3-10.1,31.4-19.6c8.8-10.2,13.2-23.7,14.6-37.1c1.4-13.4,0.1-27-1.2-40.4c-0.6-6.4,4.7-13.8,4.1-20.2h-0.4
	c-2.8-3.8-5.7-7.8-7-12.3c-1.4-4.5-1-9.9,2.1-13.5c1.8-1.9,4-3.2,6.4-4c0.2-0.3,0.5-0.6,0.7-0.9c4.8-5,10.3-9.2,16.5-12.4
	c-4.5,3.4-7.4,7.2-8.8,11.1c3.9-0.9,7.7-1.7,11.6-2.5c1.3-1.4,2.7-2.7,4.1-3.9c2.1-1.8,2.8-1.9,5.2-3.6c-2,1.8-3.5,4-4.5,6.4
	c5-1.2,9.9-3.1,12.5-7.4c4.3-7.1-0.8-16.6-7.9-20.8c-10.6-6-23.8-4.5-32.9,3.6c-10.3-7.6-24.9-7.4-36.3-1.8c-7.5,3.9-14,9.6-19,16.5
	c2.8-0.4,5.7-0.6,8.6-0.6c-4,0.6-7.9,2.1-11.2,4.5c-1.5,2.3-2.8,4.7-4.1,7.1c-0.8,1.6-1.6,3.2-2.3,4.9c-4.4,10-7.3,20.7-10.2,31.2
	c-3.5,12.3-7.2,24.6-13.7,35.6c-9.9,16.7-25.6,29.2-44.1,35.2C37.3,252.8,44,266.4,54.6,275.7z"/>
<path class="st6" d="M210.6,190.3l-5.6-2.1l-7.1-11.5l-25.2,2.1l-6.1,12.3l-14.8,11.3l6.5,34l10.1,70.8l61.3-1.6l5.7-67.3
	c0,0,12.1-24.6-7.5-33.8L210.6,190.3z"/>
<path class="st7" d="M314.1,298.2c-4.9,2-10.5-0.4-12.5-5.3c-0.2-0.5-0.4-1.1-0.5-1.6l-74.9-45.3l13.7-15.8l69.3,49.5
	c5.3-0.7,10.2,2.9,10.9,8.2C320.8,292.3,318.3,296.6,314.1,298.2L314.1,298.2z"/>
<path class="st6" d="M201.3,224.4c0,0-3.6,3.6,5.4,9.5c7.2,4.7,39.3,28.2,50.6,31.9c-0.3,3.4,1.8,6.6,5,7.8l10.3-22.6
	c-2.2-5.2-5.8-4-7.7-2.8l-12.4-9.4L222,208.3l-18.2,13.4L201.3,224.4z"/>
<path class="st8" d="M171.3,107.1c-7,10.4-8.8,23.5-4.8,35.4"/>
<path id="a4a87c0b-578c-404f-b0e7-3c25016717c2-1927" class="st0" d="M131.3,352.2c-1.5,0.5-2.2,2.1-1.7,3.6l39.1,112.6
	c0.5,1.5,2.1,2.2,3.6,1.7l227.2-79.7c1.5-0.5,2.2-2.1,1.7-3.6l-39.1-112.6c-0.5-1.5-2.1-2.2-3.6-1.7L131.3,352.2z"/>
<path class="st1" d="M188.8,453.8c-9.2,0-17.3-5.8-20.4-14.4L147,378.7c-4-11.3,1.9-23.6,13.2-27.6L275,310.5
	c44.8-15.8,93.8,7.7,109.7,52.4c4,11.3-1.9,23.6-13.2,27.6l-0.2-0.5l0.2,0.5l-175.5,62C193.7,453.3,191.3,453.7,188.8,453.8z"/>
<path id="e6660b72-17a8-4076-a000-8bf222be7673-1928" class="st0" d="M341.1,334.1l-102.8,36.1c-1.4,0.5-3.2-0.9-4-3
	s-0.2-4.4,1.2-4.9l102.8-36.1c1.4-0.5,3.2,0.9,4,3S342.6,333.6,341.1,334.1z"/>
<path id="f689c0b7-f689-4c10-b0b9-25ad5f15d9dd-1929" class="st0" d="M349.1,356.8l-102.8,36.1c-1.4,0.5-3.2-0.9-4-3
	s-0.2-4.4,1.2-4.9l102.8-36.1c1.4-0.5,3.2,0.9,4,3S350.5,356.3,349.1,356.8z"/>
<path class="st9" d="M224.4,382.6c1.1,3.1,1.6,6.4,1.6,9.7c0,1.5-0.2,3-0.4,4.5c-2.7,15.1-17.2,25-32.2,22.3
	c-4.8-0.9-9.4-3-13.1-6.3c-0.4-0.3-0.7-0.6-1.1-1c-11-10.6-11.4-28.1-0.8-39.2c10.6-11,28.1-11.4,39.2-0.8
	C220.6,374.8,222.9,378.5,224.4,382.6z"/>
<circle class="st8" cx="199.4" cy="390.7" r="5.3"/>
<path class="st4" d="M179.1,411.8c1.4-3.2,3-8,6.7-6.2c1.8,0.8,5.1,3.2,6.5,0.4l10.5-21.9c0.8-1.7,2.9-2.4,4.6-1.6c0,0,0,0,0.1,0
	l18.6,9.7c0,1.5-0.2,3-0.4,4.5l-45.3,16L179.1,411.8z"/>
<path class="st7" d="M184.5,347.1c-4.9-1.9-7.4-7.5-5.5-12.4c0.2-0.5,0.5-1,0.8-1.5l-23.7-84.3l20.8-2.2l16.8,83.5
	c4.4,3.1,5.4,9.1,2.3,13.5C193.4,347.3,188.7,348.7,184.5,347.1L184.5,347.1z"/>
<path class="st6" d="M152.6,202.6c0,0-5.1,0.2-2.6,10.6c2,8.4,9.4,60.9,15.1,71.4c-2.6,2.3-3.2,6.1-1.6,9.1l23-9.5
	c1.9-5.3,0.4-10.1-1.7-10.5l-2.7-15.3l-4-51.4l-21.9-4.6L152.6,202.6z"/>
<path class="st6" d="M359.6,424.3l-31.8,1.3c-1.4,0.1-2.7-0.5-3.6-1.6c-0.9-1-1.3-2.4-1-3.7c2.4-13.3,1.7-27-2.1-40
	c-0.6-2,0.3-4.2,2.2-5.2c13-6.8,25.2-7.1,36.2-1c1.2,0.6,2,1.8,2.3,3.1c2.9,14.2,3.6,28.7,2,43C363.6,422.5,361.8,424.2,359.6,424.3
	z"/>
<path class="st1" d="M358.2,403.5l-24.3,1c-1.3,0.1-2.3-0.9-2.4-2.2s0.9-2.3,2.2-2.4c0,0,0,0,0,0l24.3-1c1.3-0.1,2.3,0.9,2.4,2.2
	C360.5,402.4,359.5,403.5,358.2,403.5C358.2,403.5,358.2,403.5,358.2,403.5L358.2,403.5z"/>
<path class="st1" d="M357.9,395.5l-24.3,1c-1.3,0.1-2.3-0.9-2.4-2.2c-0.1-1.3,0.9-2.3,2.2-2.4l24.3-1c1.3-0.1,2.3,0.9,2.4,2.2
	C360.1,394.4,359.1,395.5,357.9,395.5z"/>
<path class="st6" d="M940.7,175.7l-31.5-4.1c-1.4-0.2-2.6-1-3.3-2.1c-0.7-1.2-0.8-2.6-0.4-3.8c4.7-12.7,6.3-26.3,4.8-39.7
	c-0.2-2.1,1-4.1,3.1-4.8c14-4.4,26.1-2.7,35.9,5.2c1,0.8,1.7,2.1,1.7,3.4c0.4,14.4-1.4,28.9-5.3,42.7
	C945,174.6,942.9,176,940.7,175.7z"/>
<path class="st1" d="M942.9,155l-24.1-3.2c-1.2-0.2-2.1-1.3-2-2.6c0.2-1.2,1.3-2.1,2.6-2l0,0l24.1,3.2c1.2,0.2,2.1,1.3,2,2.6
	C945.3,154.3,944.2,155.2,942.9,155L942.9,155z"/>
<path class="st1" d="M944,147.1l-24.1-3.2c-1.2-0.2-2.1-1.3-2-2.6c0.2-1.2,1.3-2.1,2.6-2c0,0,0,0,0,0l24.1,3.2
	c1.2,0.2,2.1,1.3,2,2.6C946.4,146.4,945.2,147.2,944,147.1C944,147.1,944,147.1,944,147.1z"/>
<path class="st1" d="M520.7,236.9h-10.5v-10.5c0-5.2-4.3-9.5-9.5-9.5s-9.5,4.3-9.5,9.5v10.5h-10.5c-5.2,0-9.5,4.3-9.5,9.5
	s4.3,9.5,9.5,9.5h10.5v10.5c0,5.2,4.3,9.5,9.5,9.5s9.5-4.3,9.5-9.5v-10.5h10.5c5.2,0,9.5-4.3,9.5-9.5S525.9,236.9,520.7,236.9z"/>
<circle class="st4" cx="860.7" cy="32.5" r="10"/>
<circle class="st4" cx="245.7" cy="315.5" r="10"/>
</svg>
