<svg width="5060" height="5130" xmlns="http://www.w3.org/2000/svg" class="img-fluid">

 <g>
  <title>Layer 1</title>
  <g stroke="null" fill="rgb(0,191,106)" id="l6gEFKG0R1wkB3QbJv9XJqc">
   <g stroke="null" id="svg_1">
    <path stroke="null" d="m2200.63077,5031.01007c-616.56654,-85.44808 -1199.62402,-403.78406 -1596.70628,-874.58623c-160.84344,-191.00159 -244.61607,-321.68689 -346.81868,-537.82027c-246.29152,-519.39029 -313.30963,-1060.56146 -199.37885,-1618.48716c92.14989,-449.02128 341.79232,-906.41983 683.58464,-1248.21215c361.89775,-361.89775 792.48906,-591.43475 1298.47572,-696.98826c214.45793,-43.56177 242.94062,-38.53541 55.28993,11.72817c-368.59956,97.17625 -698.66371,293.2042 -963.38522,576.35568c-356.87139,380.32773 -546.19753,856.15625 -547.87298,1383.9238c0,420.53859 110.57987,790.8136 343.46777,1147.685c112.25532,172.57161 418.86314,470.80217 599.81201,581.38203c621.5929,385.35409 1367.16928,418.86314 2018.92032,88.79899c958.35886,-485.88124 1365.49383,-1636.91714 933.22707,-2638.83776c-120.63258,-276.44967 -365.24866,-591.43475 -603.16292,-772.38362c-113.93077,-88.79899 -159.16799,-130.6853 -103.87806,-98.8517c242.94062,140.73801 583.05749,442.31947 757.30455,675.20738c559.60115,745.57638 668.50557,1745.82156 276.44967,2575.17057c-360.2223,764.00636 -1032.07877,1275.01939 -1884.88412,1430.83648c-137.38711,26.80724 -578.03113,35.1845 -720.4446,15.07907z" id="p1A7g3nHwZ"/>
    <path stroke="null" d="m2373.20238,3290.21487c-140.73801,-25.13179 -268.07241,-68.69355 -405.45952,-137.38711c-467.45126,-234.56336 -762.33091,-593.1102 -893.01621,-1085.69325c-55.28993,-202.72976 -61.99174,-551.22389 -15.07907,-760.65546c105.55351,-477.50398 437.29312,-894.69166 886.3144,-1115.8514c170.89616,-85.44808 452.37219,-169.22071 554.57479,-165.8698c36.85996,0 16.75453,10.05272 -70.36901,33.50905c-219.48428,55.28993 -390.38044,150.79073 -561.2766,314.98508c-574.68022,542.84663 -487.55669,1507.90729 175.92252,1945.20041c643.37378,422.21404 1477.74915,196.02795 1827.91873,-497.60941c83.77263,-164.19435 118.95713,-328.3887 118.95713,-549.54844c0,-284.82693 -56.96539,-472.47762 -209.43157,-696.98826c-100.52715,-149.11528 -175.92252,-226.18609 -306.60782,-318.33598c-63.6672,-45.23722 -112.25532,-82.09717 -107.22896,-82.09717c6.70181,0 56.96539,26.80724 115.60623,58.64084c388.70499,219.48428 680.23373,606.51382 789.13815,1040.45603c53.61448,216.13338 51.93903,591.43475 -1.67545,794.16451c-130.6853,487.55669 -469.12671,891.34076 -916.47254,1094.07051c-239.58971,107.22896 -353.52049,130.6853 -643.37378,137.38711c-142.41347,3.35091 -294.87965,0 -338.44141,-8.37726z" id="p13NevvMPY"/>
    <path stroke="null" d="m2550.80035,1742.09672c-185.97523,-60.31629 -390.38044,-214.45793 -487.55669,-366.92411c-157.49254,-249.64243 -177.59797,-583.05749 -51.93903,-846.10354c68.69355,-142.41347 251.31788,-330.06415 383.67863,-395.4068c127.33439,-61.99174 256.34424,-93.82534 366.92411,-92.14989l92.14989,1.67545l-90.47444,15.07907c-169.22071,28.48269 -306.60782,129.00985 -390.38044,288.17784c-31.8336,58.64084 -38.53541,97.17625 -38.53541,229.537c0,132.36075 6.70181,170.89616 38.53541,229.537c55.28993,105.55351 123.98349,177.59797 224.51064,232.8879c80.42172,43.56177 103.87806,48.58812 247.96698,48.58812c132.36075,0 170.89616,-6.70181 229.537,-38.53541c179.27342,-95.5008 273.09877,-237.91426 286.50239,-433.94221c5.02636,-70.36901 -1.67545,-152.46618 -13.40362,-194.3525c-28.48269,-103.87806 -129.00985,-227.86155 -234.56336,-293.2042c-102.20261,-63.6672 -58.64084,-56.96539 83.77263,10.05272c55.28993,25.13179 137.38711,88.79899 206.08066,155.81709c433.94221,432.26676 306.60782,1139.30773 -251.31788,1402.35378c-125.65894,58.64084 -139.06256,60.31629 -331.7396,65.34265c-132.36075,3.35091 -224.51064,-3.35091 -269.74786,-18.42998z" id="pKU2UYuu"/>
   </g>
  </g>
 </g>
</svg>