<svg id="Layer_1" data-name="Layer 1" xmlns="http://www.w3.org/2000/svg" viewBox="0 0 65.74 9.07"><defs><style>.cls-1{fill:#555454;}.cls-2{fill:#4ab382;}</style></defs><title>Tenrol-Logo-04</title><path class="cls-1" d="M3.71,38.4v-1h.54c.46,0,.68.2.68.53s-.21.51-.68.51Zm-.58,2.12h.58V38.94h.54c.74,0,1.27-.37,1.27-1a1.17,1.17,0,0,0-1.27-1.12H3.13Z" transform="translate(-3.13 -33)"/><path class="cls-1" d="M7.13,40.09c-.51,0-.72-.43-.72-.89s.21-.87.72-.87.73.42.73.87S7.65,40.09,7.13,40.09Zm0,.48a1.31,1.31,0,0,0,1.31-1.31V39.2A1.31,1.31,0,0,0,5.83,39a.89.89,0,0,0,0,.23,1.32,1.32,0,0,0,1.25,1.37Z" transform="translate(-3.13 -33)"/><polygon class="cls-1" points="6.32 7.52 6.83 7.52 7.38 5.67 7.92 7.52 8.43 7.52 9.22 4.9 8.62 4.9 8.14 6.68 7.62 4.9 7.13 4.9 6.6 6.68 6.13 4.9 5.54 4.9 6.32 7.52"/><path class="cls-1" d="M13.17,39c.05-.37.23-.66.64-.66a.62.62,0,0,1,.63.61v0Zm.68,1.58a1.31,1.31,0,0,0,1.05-.45l-.38-.33a.84.84,0,0,1-.66.28.65.65,0,0,1-.69-.61v-.06H15a.89.89,0,0,0,0-.23,1.17,1.17,0,0,0-1-1.3h-.16a1.36,1.36,0,0,0,0,2.71Z" transform="translate(-3.13 -33)"/><path class="cls-1" d="M15.57,40.52h.54V39.35c0-.65.3-1,.64-1a.47.47,0,0,1,.3.1L17.3,38a.71.71,0,0,0-.46-.17.77.77,0,0,0-.72.5V37.9h-.55Z" transform="translate(-3.13 -33)"/><path class="cls-1" d="M18.05,39c.05-.37.23-.66.64-.66s.6.27.63.66Zm.69,1.58a1.32,1.32,0,0,0,1-.45l-.38-.33a.84.84,0,0,1-.66.28.67.67,0,0,1-.69-.63v0h1.8a.89.89,0,0,0,0-.23,1.17,1.17,0,0,0-1-1.3h-.16a1.36,1.36,0,0,0,0,2.71Z" transform="translate(-3.13 -33)"/><path class="cls-1" d="M21.49,40.07c-.47,0-.68-.39-.68-.86s.21-.86.68-.86.66.39.66.86S22,40.07,21.49,40.07Zm.62-3.25v1.37a1,1,0,0,0-.77-.34c-.71,0-1.1.63-1.1,1.36s.39,1.36,1.11,1.36a.9.9,0,0,0,.77-.37v.32h.53v-3.7Z" transform="translate(-3.13 -33)"/><path class="cls-1" d="M26,40.06c-.47,0-.68-.38-.68-.85s.21-.86.68-.86.67.4.67.86S26.47,40.06,26,40.06Zm.14.51c.71,0,1.1-.63,1.1-1.36s-.39-1.36-1.11-1.36a.94.94,0,0,0-.76.34V36.82H24.8v3.7h.57v-.3a.92.92,0,0,0,.78.35Z" transform="translate(-3.13 -33)"/><polygon class="cls-1" points="24.87 8.64 25.48 8.64 26.94 4.9 26.33 4.9 25.64 6.82 24.94 4.9 24.33 4.9 25.35 7.46 24.87 8.64"/><g id="cqWsjL.tif"><path class="cls-2" d="M44.85,39.13H40a1.52,1.52,0,0,0,1.4,1.63,1.6,1.6,0,0,0,.44,0A1.32,1.32,0,0,0,43.05,40a.13.13,0,0,1,.09-.07h1.71A2.31,2.31,0,0,1,44,41.35a3,3,0,0,1-1.64.62,5.18,5.18,0,0,1-1.84-.08,2.75,2.75,0,0,1-2.11-2,4.13,4.13,0,0,1,.07-2.71,2.76,2.76,0,0,1,2-1.75,4.48,4.48,0,0,1,2.3,0,2.72,2.72,0,0,1,2,2.17A5.23,5.23,0,0,1,44.85,39.13ZM43.1,38a1.71,1.71,0,0,0,0-.32A1.21,1.21,0,0,0,42,36.59a3,3,0,0,0-.84,0A1.34,1.34,0,0,0,40.07,38Z" transform="translate(-3.13 -33)"/><path class="cls-2" d="M62.39,35.28a5.13,5.13,0,0,1,1.13.16A2.9,2.9,0,0,1,65.76,38a4.14,4.14,0,0,1-.2,2.12A2.88,2.88,0,0,1,63.17,42a4.71,4.71,0,0,1-2.08-.08,2.86,2.86,0,0,1-2.16-2.36,3.83,3.83,0,0,1,.16-2.27,2.87,2.87,0,0,1,2.26-1.84A4.72,4.72,0,0,1,62.39,35.28Zm-1.71,3.41.07.66a1.22,1.22,0,0,0,1.1,1.16,3.35,3.35,0,0,0,1,0,1.15,1.15,0,0,0,1-1,3.74,3.74,0,0,0,0-1.82,1.07,1.07,0,0,0-.89-.87,3.37,3.37,0,0,0-1-.06,1.19,1.19,0,0,0-1.19,1A7.32,7.32,0,0,0,60.68,38.69Z" transform="translate(-3.13 -33)"/><path class="cls-2" d="M47.92,41.8H46.07V35.53h1.66c.15,0,.19,0,.19.19a8.34,8.34,0,0,0,0,1l.08-.13a2.23,2.23,0,0,1,2.12-1.22,4.22,4.22,0,0,1,1,.13A1.86,1.86,0,0,1,52.43,37a5.57,5.57,0,0,1,.11,1v3.8H50.68V38.25a2.53,2.53,0,0,0,0-.55,1,1,0,0,0-1.07-.9A1.44,1.44,0,0,0,48,38.05h0a5.14,5.14,0,0,0-.07.78v3Z" transform="translate(-3.13 -33)"/><path class="cls-2" d="M33.71,36.91H32.56v-.84a.48.48,0,0,1,.1-.09l1-.43a.47.47,0,0,0,.23-.21c.22-.4.43-.81.64-1.23a.16.16,0,0,1,.18-.11h.82v1.5h1.64c.13,0,.18,0,.17.16V36.9h-1.8v3.42H37.2v1.46h0a19.48,19.48,0,0,1-2-.07,1.54,1.54,0,0,1-1.43-1.42,7.74,7.74,0,0,1-.07-.83V36.91Z" transform="translate(-3.13 -33)"/><path class="cls-2" d="M68.87,41.8H67V33h1.83Z" transform="translate(-3.13 -33)"/><path class="cls-2" d="M55.76,36.76l.07-.15a1.83,1.83,0,0,1,1.81-1.21c.43,0,.43,0,.43.43v1.39h-.69a1.39,1.39,0,0,0-1.55,1.21,1.93,1.93,0,0,0,0,.24c-.06.7,0,1.4,0,2.1v1h-1.9V35.69c0-.16,0-.21.2-.2h1.43c.13,0,.18,0,.18.18v1.07Z" transform="translate(-3.13 -33)"/></g></svg>