<svg id="Layer_1" data-name="Layer 1" xmlns="http://www.w3.org/2000/svg" viewBox="0 0 72 72"><defs><style>.cls-1{fill:#4ab382;}</style></defs><title>Tenrol-Logo</title><path class="cls-1" d="M49.21,7.89A25.09,25.09,0,1,1,34,5,31,31,0,1,0,49.21,7.89Z"/><path class="cls-1" d="M54,23.16A15.51,15.51,0,1,1,38.22,5.05a20.33,20.33,0,1,0,6.31,1.14A15.49,15.49,0,0,1,54,23.16Z"/><path class="cls-1" d="M41.18,5.43A10.72,10.72,0,1,0,49.94,17.8,10.72,10.72,0,0,0,41.18,5.43ZM46.4,13a6.49,6.49,0,1,1-5.31-7.49A6.5,6.5,0,0,1,46.4,13Z"/></svg>