<svg id="Layer_1" data-name="Layer 1" xmlns="http://www.w3.org/2000/svg" viewBox="0 0 45.34 45.14"><defs><style>.cls-1{fill:#4ab382;}</style></defs><title>Tenrol-Logo-02</title><g id="cqWsjL.tif"><path class="cls-1" d="M27.23,56h-6A1.9,1.9,0,0,0,23,58a2.09,2.09,0,0,0,.56,0A1.64,1.64,0,0,0,25,57.1a.13.13,0,0,1,.1-.1h2.14a3,3,0,0,1-1.08,1.81,4.06,4.06,0,0,1-2,.76,6.41,6.41,0,0,1-2.31-.1A3.41,3.41,0,0,1,19.18,57a5.09,5.09,0,0,1,.09-3.38,3.4,3.4,0,0,1,2.43-2.18,5.62,5.62,0,0,1,2.88,0,3.35,3.35,0,0,1,2.53,2.71A6.39,6.39,0,0,1,27.23,56Zm-2.18-1.41a1,1,0,0,0-.05-.4,1.5,1.5,0,0,0-1.33-1.36,3.76,3.76,0,0,0-1.06,0,1.69,1.69,0,0,0-1.35,1.75Z" transform="translate(-11.89 -14.51)"/><path class="cls-1" d="M49.14,51.23c.43.06.93.09,1.41.2a3.65,3.65,0,0,1,2.8,3.13,5.2,5.2,0,0,1-.25,2.65,3.59,3.59,0,0,1-3,2.34,6.21,6.21,0,0,1-2.61-.1,3.61,3.61,0,0,1-2.7-3A4.89,4.89,0,0,1,45,53.67a3.57,3.57,0,0,1,2.82-2.3C48.25,51.29,48.66,51.28,49.14,51.23ZM47,55.48a5.41,5.41,0,0,0,.08.83,1.53,1.53,0,0,0,1.38,1.45,4.29,4.29,0,0,0,1.24,0A1.44,1.44,0,0,0,51,56.54a4.63,4.63,0,0,0,0-2.28,1.36,1.36,0,0,0-1.11-1.09,5,5,0,0,0-1.22-.07,1.49,1.49,0,0,0-1.49,1.32A9.38,9.38,0,0,0,47,55.48Z" transform="translate(-11.89 -14.51)"/><path class="cls-1" d="M31.06,59.37h-2.3V51.54h2.07c.19,0,.24.06.24.25a8.15,8.15,0,0,0,0,1.21l.11-.17a2.79,2.79,0,0,1,2.65-1.52,4.84,4.84,0,0,1,1.26.16,2.33,2.33,0,0,1,1.58,1.92,5.83,5.83,0,0,1,.13,1.25v4.75H34.52V55a4,4,0,0,0,0-.69,1.31,1.31,0,0,0-1.34-1.12,1.79,1.79,0,0,0-2,1.53v0a5.55,5.55,0,0,0-.09,1v3.45Z" transform="translate(-11.89 -14.51)"/><path class="cls-1" d="M13.32,53.26H11.89v-1a.54.54,0,0,1,.13-.11c.42-.18.86-.34,1.28-.53a.55.55,0,0,0,.28-.26c.28-.51.54-1,.81-1.54a.2.2,0,0,1,.23-.14h1V51.5h2.06c.15,0,.21,0,.21.21v1.54H15.66v4.27h2v1.82h0a22.11,22.11,0,0,1-2.44-.09,1.92,1.92,0,0,1-1.79-1.77,6.74,6.74,0,0,1-.08-1V53.55Z" transform="translate(-11.89 -14.51)"/><path class="cls-1" d="M57.23,59.37H54.94v-11h2.29Z" transform="translate(-11.89 -14.51)"/><path class="cls-1" d="M40.86,53.08l.09-.19a2.28,2.28,0,0,1,2.26-1.51c.53,0,.53,0,.53.53v1.74h-.86A1.74,1.74,0,0,0,41,55.18a1.38,1.38,0,0,0,0,.29c-.08.86,0,1.74-.06,2.62v1.27H38.57V51.77c0-.2,0-.26.25-.26H40.6c.17,0,.23.05.22.23v1.33Z" transform="translate(-11.89 -14.51)"/></g><path class="cls-1" d="M41.09,16a12.41,12.41,0,1,1-7.53-1.42A15.3,15.3,0,1,0,41.09,16Z" transform="translate(-11.89 -14.51)"/><path class="cls-1" d="M43.45,23.51a7.66,7.66,0,1,1-7.79-9,10,10,0,1,0,3.12.56A7.67,7.67,0,0,1,43.45,23.51Z" transform="translate(-11.89 -14.51)"/><path class="cls-1" d="M37.12,14.75a5.3,5.3,0,1,0,4.33,6.12h0A5.3,5.3,0,0,0,37.12,14.75ZM39.7,18.5a3.21,3.21,0,1,1-2.63-3.7h0a3.2,3.2,0,0,1,2.62,3.69Z" transform="translate(-11.89 -14.51)"/></svg>