<svg id="Layer_1" data-name="Layer 1" xmlns="http://www.w3.org/2000/svg" viewBox="0 0 64.72 18.24"><defs><style>.cls-1{fill:#4ab382;}</style></defs><title>Tenrol-Logo-01</title><path class="cls-1" d="M16.63,26a7.38,7.38,0,1,1-4.48-.85,9.13,9.13,0,1,0,4.48.85Z" transform="translate(-3.61 -25.15)"/><path class="cls-1" d="M18,30.48a4.56,4.56,0,1,1-4.63-5.33,6,6,0,1,0,1.86.34A4.56,4.56,0,0,1,18,30.48Z" transform="translate(-3.61 -25.15)"/><path class="cls-1" d="M14.27,25.26a3.15,3.15,0,1,0,2.57,3.64A3.16,3.16,0,0,0,14.27,25.26ZM15.8,27.5a1.91,1.91,0,1,1-1.57-2.2h0A1.9,1.9,0,0,1,15.8,27.5Z" transform="translate(-3.61 -25.15)"/><g id="cqWsjL.tif"><path class="cls-1" d="M39.62,36.16H33.87a1.81,1.81,0,0,0,1.66,2,1.71,1.71,0,0,0,.55,0,1.56,1.56,0,0,0,1.39-.9.19.19,0,0,1,.11-.07h2a2.84,2.84,0,0,1-1,1.73,3.72,3.72,0,0,1-2,.73,6.32,6.32,0,0,1-2.21-.09,3.28,3.28,0,0,1-2.51-2.37A4.81,4.81,0,0,1,32,33.86a3.27,3.27,0,0,1,2.33-2.09,5.34,5.34,0,0,1,2.75,0,3.2,3.2,0,0,1,2.42,2.6A6,6,0,0,1,39.62,36.16Zm-2.09-1.35a1,1,0,0,0-.05-.38,1.42,1.42,0,0,0-1.27-1.3,3.35,3.35,0,0,0-1,0,1.6,1.6,0,0,0-1.29,1.67Z" transform="translate(-3.61 -25.15)"/><path class="cls-1" d="M60.59,31.56c.41.06.89.08,1.35.19a3.51,3.51,0,0,1,2.67,3,5,5,0,0,1-.24,2.53,3.43,3.43,0,0,1-2.85,2.24,5.66,5.66,0,0,1-2.49-.1,3.43,3.43,0,0,1-2.59-2.82,4.73,4.73,0,0,1,.2-2.71,3.43,3.43,0,0,1,2.7-2.2C59.73,31.62,60.12,31.61,60.59,31.56Zm-2.05,4.07a3.92,3.92,0,0,0,.09.79,1.45,1.45,0,0,0,1.31,1.39,4,4,0,0,0,1.19,0,1.39,1.39,0,0,0,1.22-1.16,4.47,4.47,0,0,0,0-2.18,1.32,1.32,0,0,0-1.06-1,4.61,4.61,0,0,0-1.17-.07,1.41,1.41,0,0,0-1.43,1.26A7.83,7.83,0,0,0,58.54,35.63Z" transform="translate(-3.61 -25.15)"/><path class="cls-1" d="M43.29,39.35H41.08v-7.5h2c.18,0,.24,0,.23.24a11,11,0,0,0,0,1.15l.1-.15A2.7,2.7,0,0,1,46,31.6a5.41,5.41,0,0,1,1.2.16,2.23,2.23,0,0,1,1.52,1.84,5.94,5.94,0,0,1,.13,1.19v4.55H46.59V35.11a3.68,3.68,0,0,0-.06-.66,1.24,1.24,0,0,0-1.28-1.07,1.7,1.7,0,0,0-1.87,1.5,4.88,4.88,0,0,0-.09.93v3.54Z" transform="translate(-3.61 -25.15)"/><path class="cls-1" d="M26.31,33.5H24.94v-1a.54.54,0,0,1,.13-.11c.41-.17.82-.33,1.22-.51a.6.6,0,0,0,.28-.24c.27-.49.52-1,.77-1.48a.19.19,0,0,1,.22-.13h1v1.79h2c.15,0,.2,0,.2.2v1.47H28.55v4.08h1.92v1.75h0a22.77,22.77,0,0,1-2.34-.08,1.87,1.87,0,0,1-1.72-1.7,8.42,8.42,0,0,1-.08-1v-2.8Z" transform="translate(-3.61 -25.15)"/><path class="cls-1" d="M68.33,39.35H66.14V28.83h2.19Z" transform="translate(-3.61 -25.15)"/><path class="cls-1" d="M52.66,33.33a1.42,1.42,0,0,0,.08-.18,2.18,2.18,0,0,1,2.17-1.44c.51,0,.51,0,.51.5v1.66h-.83a1.67,1.67,0,0,0-1.85,1.47,2.44,2.44,0,0,0,0,.27c-.07.83,0,1.68,0,2.51v1.22H50.47V32.08c0-.19,0-.26.24-.25h1.7c.17,0,.22.05.22.21v1.28Z" transform="translate(-3.61 -25.15)"/></g></svg>